<svg width="36" height="36" viewBox="0 0 36 36" fill="none" xmlns="http://www.w3.org/2000/svg">
<path fill-rule="evenodd" clip-rule="evenodd" d="M9.66663 13.8333C9.66663 11.5321 11.5321 9.66666 13.8333 9.66666H22.1666C24.4678 9.66666 26.3333 11.5321 26.3333 13.8333V22.1667C26.3333 24.4678 24.4678 26.3333 22.1666 26.3333H13.8333C11.5321 26.3333 9.66663 24.4678 9.66663 22.1667V13.8333ZM21.8458 16.7458L17.8875 20.7042C17.7458 20.8458 17.5625 20.9125 17.3708 20.9125C17.1875 20.9125 17.0041 20.8458 16.8625 20.7042L14.8791 18.7292C14.5958 18.4375 14.5958 17.9792 14.8791 17.6958C15.1625 17.4125 15.6291 17.4125 15.9125 17.6958L17.3708 19.1542L20.8125 15.7125C21.0958 15.4292 21.5625 15.4292 21.8458 15.7125C22.1291 16.0042 22.1291 16.4625 21.8458 16.7458Z" fill="#00A76F"/>
</svg>
