<svg width="36" height="36" viewBox="0 0 36 36" fill="none" xmlns="http://www.w3.org/2000/svg">
<path fill-rule="evenodd" clip-rule="evenodd" d="M13.8333 9.66666C11.5321 9.66666 9.66663 11.5321 9.66663 13.8333V22.1667C9.66663 24.4678 11.5321 26.3333 13.8333 26.3333H22.1666C24.4678 26.3333 26.3333 24.4678 26.3333 22.1667V13.8333C26.3333 11.5321 24.4678 9.66666 22.1666 9.66666H13.8333ZM14.25 10.9167C12.409 10.9167 10.9166 12.409 10.9166 14.25V21.75C10.9166 23.5909 12.409 25.0833 14.25 25.0833H21.75C23.5909 25.0833 25.0833 23.5909 25.0833 21.75V14.25C25.0833 12.409 23.5909 10.9167 21.75 10.9167H14.25Z" fill="#637381"/>
</svg>
